<?xml version="1.0" encoding="iso-8859-1"?>
<!-- Generator: Adobe Illustrator 18.0.0, SVG Export Plug-In . SVG Version: 6.00 Build 0)  -->
<!DOCTYPE svg PUBLIC "-//W3C//DTD SVG 1.1//EN" "http://www.w3.org/Graphics/SVG/1.1/DTD/svg11.dtd">
<svg version="1.1" id="Capa_1" xmlns="http://www.w3.org/2000/svg" xmlns:xlink="http://www.w3.org/1999/xlink" x="0px" y="0px"
	 viewBox="0 0 60 60" style="enable-background:new 0 0 60 60;" xml:space="preserve">
<g>
	<path d="M57.348,0.793H12.652C11.189,0.793,10,1.983,10,3.446v9.347H2.652C1.189,12.793,0,13.983,0,15.446v43.761l9.414-9.414
		h34.934c1.463,0,2.652-1.19,2.652-2.653v-6.347h3.586L60,50.207V3.446C60,1.983,58.811,0.793,57.348,0.793z M45,47.14
		c0,0.36-0.293,0.653-0.652,0.653H8.586L2,54.379V15.446c0-0.36,0.293-0.653,0.652-0.653H10h34.348c0.359,0,0.652,0.293,0.652,0.653
		v25.347V47.14z M58,45.379l-6.586-6.586H47V15.446c0-1.463-1.189-2.653-2.652-2.653H12V3.446c0-0.36,0.293-0.653,0.652-0.653
		h44.695C57.707,2.793,58,3.086,58,3.446V45.379z"/>
	<path d="M11,24.793h12c0.553,0,1-0.448,1-1s-0.447-1-1-1H11c-0.553,0-1,0.448-1,1S10.447,24.793,11,24.793z"/>
	<path d="M36,29.793H11c-0.553,0-1,0.448-1,1s0.447,1,1,1h25c0.553,0,1-0.448,1-1S36.553,29.793,36,29.793z"/>
	<path d="M36,36.793H11c-0.553,0-1,0.448-1,1s0.447,1,1,1h25c0.553,0,1-0.448,1-1S36.553,36.793,36,36.793z"/>
</g>
<g>
</g>
<g>
</g>
<g>
</g>
<g>
</g>
<g>
</g>
<g>
</g>
<g>
</g>
<g>
</g>
<g>
</g>
<g>
</g>
<g>
</g>
<g>
</g>
<g>
</g>
<g>
</g>
<g>
</g>
</svg>
